<svg id="visual" viewBox="0 0 1600 90" width="1600" height="90" xmlns="http://www.w3.org/2000/svg" xmlns:xlink="http://www.w3.org/1999/xlink" version="1.1"><path d="M0 62L22.2 60.7C44.3 59.3 88.7 56.7 133.2 54.2C177.7 51.7 222.3 49.3 266.8 52.8C311.3 56.3 355.7 65.7 400 69.5C444.3 73.3 488.7 71.7 533.2 64.3C577.7 57 622.3 44 666.8 33.3C711.3 22.7 755.7 14.3 800 22.5C844.3 30.7 888.7 55.3 933.2 67.3C977.7 79.3 1022.3 78.7 1066.8 70.3C1111.3 62 1155.7 46 1200 44.3C1244.3 42.7 1288.7 55.3 1333.2 62.5C1377.7 69.7 1422.3 71.3 1466.8 72.2C1511.3 73 1555.7 73 1577.8 73L1600 73L1600 0L1577.8 0C1555.7 0 1511.3 0 1466.8 0C1422.3 0 1377.7 0 1333.2 0C1288.7 0 1244.3 0 1200 0C1155.7 0 1111.3 0 1066.8 0C1022.3 0 977.7 0 933.2 0C888.7 0 844.3 0 800 0C755.7 0 711.3 0 666.8 0C622.3 0 577.7 0 533.2 0C488.7 0 444.3 0 400 0C355.7 0 311.3 0 266.8 0C222.3 0 177.7 0 133.2 0C88.7 0 44.3 0 22.2 0L0 0Z" fill="#262626" stroke-linecap="round" stroke-linejoin="miter"></path></svg>