<svg id="visual" viewBox="0 0 1600 90" width="1600" height="90" xmlns="http://www.w3.org/2000/svg" xmlns:xlink="http://www.w3.org/1999/xlink" version="1.1"><path d="M0 26L22.2 27.3C44.3 28.7 88.7 31.3 133.2 33.8C177.7 36.3 222.3 38.7 266.8 35.2C311.3 31.7 355.7 22.3 400 18.5C444.3 14.7 488.7 16.3 533.2 23.7C577.7 31 622.3 44 666.8 54.7C711.3 65.3 755.7 73.7 800 65.5C844.3 57.3 888.7 32.7 933.2 20.7C977.7 8.7 1022.3 9.3 1066.8 17.7C1111.3 26 1155.7 42 1200 43.7C1244.3 45.3 1288.7 32.7 1333.2 25.5C1377.7 18.3 1422.3 16.7 1466.8 15.8C1511.3 15 1555.7 15 1577.8 15L1600 15L1600 91L1577.8 91C1555.7 91 1511.3 91 1466.8 91C1422.3 91 1377.7 91 1333.2 91C1288.7 91 1244.3 91 1200 91C1155.7 91 1111.3 91 1066.8 91C1022.3 91 977.7 91 933.2 91C888.7 91 844.3 91 800 91C755.7 91 711.3 91 666.8 91C622.3 91 577.7 91 533.2 91C488.7 91 444.3 91 400 91C355.7 91 311.3 91 266.8 91C222.3 91 177.7 91 133.2 91C88.7 91 44.3 91 22.2 91L0 91Z" fill="#262626" stroke-linecap="round" stroke-linejoin="miter"></path></svg>